<?xml version="1.0" encoding="UTF-8"?>
<svg xmlns="http://www.w3.org/2000/svg" viewBox="0 0 100 100" fill="none" stroke="currentColor" stroke-width="0.7" stroke-linejoin="miter" stroke-linecap="butt" aria-hidden="true">
  <g class="rosette">
    <circle class="r-stroke" cx="50" cy="50" r="46" pathLength="1"/>
    <rect class="r-stroke" x="18.89" y="18.89" width="62.22" height="62.22" pathLength="1"/>
    <rect class="r-stroke" x="18.89" y="18.89" width="62.22" height="62.22" transform="rotate(45 50 50)" pathLength="1"/>
    <circle class="r-stroke" cx="50" cy="50" r="16" pathLength="1"/>
    <path class="r-stroke" pathLength="1" d="M50 36 Q46 43 50 50 Q54 43 50 36 M50 64 Q46 57 50 50 Q54 57 50 64 M36 50 Q43 46 50 50 Q43 54 36 50 M64 50 Q57 46 50 50 Q57 54 64 50"/>
    <circle class="r-dot" cx="50" cy="50" r="1.2" fill="currentColor" stroke="none"/>
  </g>
</svg>
